<svg xmlns="http://www.w3.org/2000/svg" width="600" height="800" viewBox="0 0 600 800">
  <rect width="600" height="800" fill="#E8EDF0"/>
  <ellipse cx="300" cy="120" rx="65" ry="75" fill="#8BA4B5" opacity="0.35" stroke="#8BA4B5" stroke-width="1" stroke-opacity="0.5"/>
  <!-- Jacket -->
  <path d="M160 220 Q200 250 195 420 L175 430 Q155 420 150 400 L140 280Z" fill="#8BA4B5" opacity="0.3" stroke="#8BA4B5" stroke-width="1" stroke-opacity="0.5"/>
  <path d="M440 220 Q400 250 405 420 L425 430 Q445 420 450 400 L460 280Z" fill="#8BA4B5" opacity="0.3" stroke="#8BA4B5" stroke-width="1" stroke-opacity="0.5"/>
  <path d="M195 215 Q300 245 405 215 L400 500 Q300 515 200 500Z" fill="#8BA4B5" opacity="0.3" stroke="#8BA4B5" stroke-width="1" stroke-opacity="0.5"/>
  <!-- Lapels -->
  <path d="M300 215 L270 310 L210 280 Z" fill="#6B8FA3" opacity="0.3"/>
  <path d="M300 215 L330 310 L390 280 Z" fill="#6B8FA3" opacity="0.3"/>
  <!-- Trousers -->
  <path d="M200 500 L195 720 Q300 730 300 720 L300 500Z" fill="#8BA4B5" opacity="0.25" stroke="#8BA4B5" stroke-width="1" stroke-opacity="0.4"/>
  <path d="M400 500 L405 720 Q300 730 300 720 L300 500Z" fill="#8BA4B5" opacity="0.25" stroke="#8BA4B5" stroke-width="1" stroke-opacity="0.4"/>
  <text x="300" y="775" font-family="Georgia, serif" font-size="14" fill="#8A8276" text-anchor="middle" letter-spacing="3">COSTUM LINEN RELAXED</text>
</svg>
